# xmcd
#
# Track frame offsets: 
#        150
#        6895
#        34010
#        53310
#        68760
#        84267
#        111209
#        133463
#        149166
#        172300
#        189337
#        215447
#        239567
#        266484
#        288555
#        312107
#
# Disc length: 4416 seconds
#
# Revision: 2
# Processed by: cddbd v1.5.2PL0 Copyright (c) Steve Scherf et al.
# Submitted via: ExactAudioCopyFreeDBPlugin 1.0
#
DISCID=ef113e10
DTITLE=Various Artist - Expertise
DYEAR=2002
DGENRE=IDM
TTITLE0=Ad-jap - Sine Waltz
TTITLE1=Stars As Eyes - What About Now
TTITLE2=Frank Murder - Last Moment
TTITLE3=delet_ER_boy - Apexin'
TTITLE4=The Tendrils Of Emptiness - Ov-rwh-lm-ngf-(2)l-ngs-f-ng-r
TTITLE5=Adam Johnson - Jernt
TTITLE6=Mr. Projectile - Special Boy
TTITLE7=Multiplex - Crushed
TTITLE8=Funckarma - Noir
TTITLE9=Jonas - Madshit
TTITLE10=Loess - Tone2
TTITLE11=EU - Only Strings
TTITLE12=Gridlock - Estrella (Long Version)
TTITLE13=Slemper - Eating Rocks
TTITLE14=Scen - Scen
TTITLE15=Witsy - Busted Door
EXTD=YEAR: 2002
EXTT0=
EXTT1=
EXTT2=
EXTT3=
EXTT4=
EXTT5=
EXTT6=
EXTT7=
EXTT8=
EXTT9=
EXTT10=
EXTT11=
EXTT12=
EXTT13=
EXTT14=
EXTT15=
PLAYORDER=
